<svg width="248" height="36" viewBox="0 0 248 36" fill="none" xmlns="http://www.w3.org/2000/svg">
<path d="M0.552 35H7.8V21.32H21.24V35H28.488V1.4H21.24V14.408H7.8V1.4H0.552V35ZM35.6145 1.4V35H42.8625V1.4H35.6145ZM49.9583 1.4V35H68.8703V28.232H57.1583V1.4H49.9583ZM84.6075 1.4L71.0715 35H78.4635L81.2955 27.752H94.1115L96.9435 35H104.48L90.9915 1.4H84.6075ZM87.6795 10.568L91.9515 21.56H83.5035L87.6795 10.568ZM115.563 22.712H117.483L125.739 35H134.235L124.971 21.848C129.003 20.312 131.883 16.952 131.883 12.152C131.883 5.288 126.843 1.4 119.595 1.4H108.411V35H115.563V22.712ZM115.563 7.88H119.643C122.523 7.88 124.635 9.416 124.635 12.296C124.635 15.128 122.523 16.76 119.643 16.76H115.563V7.88ZM138.271 1.4V35H145.519V1.4H138.271ZM186.167 18.2C186.167 8.504 178.391 0.775997 168.599 0.775997C158.807 0.775997 151.031 8.504 151.031 18.2C151.031 27.896 158.807 35.624 168.599 35.624C178.391 35.624 186.167 27.896 186.167 18.2ZM178.775 18.2C178.775 24.008 174.311 28.616 168.599 28.616C162.887 28.616 158.423 24.008 158.423 18.2C158.423 12.392 162.887 7.784 168.599 7.784C174.311 7.784 178.775 12.392 178.775 18.2ZM204.764 35.624C213.164 35.624 218.252 30.152 218.252 21.656V1.4H210.956V21.272C210.956 25.832 208.796 28.616 204.764 28.616C200.732 28.616 198.572 25.832 198.572 21.272V1.4H191.276V21.656C191.276 30.152 196.364 35.624 204.764 35.624ZM222.783 27.368C224.799 32.696 229.839 35.624 235.359 35.624C241.599 35.624 247.215 31.736 247.215 25.016C247.215 20.456 244.671 17.48 239.247 15.416L234.879 13.736C232.815 12.968 231.615 12.008 231.615 10.424C231.615 8.648 233.103 7.448 235.359 7.448C237.855 7.448 239.631 9.224 240.639 11.48L246.639 8.024C244.575 3.464 240.207 0.775997 235.215 0.775997C228.879 0.775997 224.223 4.76 224.223 10.856C224.223 15.704 227.295 18.68 232.239 20.456L236.271 21.896C238.623 22.712 239.775 23.912 239.775 25.496C239.775 27.656 237.807 28.856 235.455 28.856C232.527 28.856 230.127 26.936 228.975 24.056L222.783 27.368Z" fill="white"/>
</svg>
